<!--<svg xmlns="http://www.w3.org/2000/svg" xmlns:xlink="http://www.w3.org/1999/xlink" id="svg">-->
    <!--<symbol viewBox="0 0 64 64" id="bin-icon">-->
        <!--<g enable-background="new"><path d="M53 9H38V6c0-1.657-1.343-3-3-3h-6c-1.657 0-3 1.343-3 3v3H11c-1.657 0-3 1.343-3 3v3h48v-3c0-1.657-1.343-3-3-3zM11 58c0 1.657 1.343 3 3 3h36c1.657 0 3-1.343 3-3V18H11v40zm30-31c0-1.657 1.343-3 3-3s3 1.343 3 3v25c0 1.657-1.343 3-3 3s-3-1.343-3-3V27zm-12 0c0-1.657 1.343-3 3-3s3 1.343 3 3v25c0 1.657-1.343 3-3 3s-3-1.343-3-3V27zm-12 0c0-1.657 1.343-3 3-3s3 1.343 3 3v25c0 1.657-1.343 3-3 3s-3-1.343-3-3V27z"/></g>-->
    <!--</symbol>-->
    <!--<symbol viewBox="0 0 64 64" id="book-icon">-->
        <!--<g enable-background="new"><path d="M10.76 32.73l11 5c.377.172.797.27 1.24.27 1.657 0 3-1.343 3-3 0-1.214-.72-2.26-1.76-2.73l-11-5c-.377-.173-.797-.27-1.24-.27-1.657 0-3 1.343-3 3 0 1.214.72 2.26 1.76 2.73zm0 11l11 5c.377.172.797.27 1.24.27 1.657 0 3-1.343 3-3 0-1.214-.72-2.26-1.76-2.73l-11-5c-.377-.172-.797-.27-1.24-.27-1.657 0-3 1.343-3 3 0 1.214.72 2.26 1.76 2.73zm0-22l11 5c.377.173.797.27 1.24.27 1.657 0 3-1.343 3-3 0-1.214-.72-2.26-1.76-2.73l-11-5c-.377-.173-.797-.27-1.24-.27-1.657 0-3 1.343-3 3 0 1.214.72 2.26 1.76 2.73zM41 49c.443 0 .863-.098 1.24-.27l11-5C54.28 43.26 55 42.214 55 41c0-1.657-1.343-3-3-3-.443 0-.863.098-1.24.27l-11 5C38.72 43.74 38 44.786 38 46c0 1.657 1.343 3 3 3zM61 0c-.406 0-.794.082-1.146.228l-.006.002-.027.01L32 11.754 4.18.24C4.17.238 4.16.235 4.15.23L4.147.228C3.794.082 3.407 0 3 0 1.343 0 0 1.343 0 3v46c0 1.257.774 2.333 1.87 2.78l28.943 11.976c.364.157.765.244 1.187.244s.823-.087 1.188-.245l28.94-11.976C63.23 51.332 64 50.256 64 49V3c0-1.657-1.343-3-3-3zM29 56.512L6 46.995V7.488l23 9.517v39.507zm29-9.517l-23 9.517V17.005l23-9.517v39.507zM41 38c.443 0 .863-.098 1.24-.27l11-5C54.28 32.26 55 31.214 55 30c0-1.657-1.343-3-3-3-.443 0-.863.097-1.24.27l-11 5C38.72 32.74 38 33.785 38 35c0 1.657 1.343 3 3 3zm0-11c.443 0 .863-.097 1.24-.27l11-5C54.28 21.26 55 20.215 55 19c0-1.657-1.343-3-3-3-.443 0-.863.097-1.24.27l-11 5C38.72 21.74 38 22.785 38 24c0 1.657 1.343 3 3 3z"/></g>-->
    <!--</symbol>-->
    <!--<symbol viewBox="0 0 733.886 1024" id="bug-icon">-->
        <!--<path d="M243.62 156.53C190.748 213.313 205.34 304 205.34 304s53.968 64 160 64c106.03 0 160.03-64 160.03-64s14.376-89.47-37.374-146.312c32.375-18.03 51.438-44.094 43.562-61.812-8.938-19.97-48.375-21.75-88.25-3.97-14.812 6.595-27.438 14.97-37.25 23.876-12.438-2.25-25.625-3.78-40.72-3.78-14.06 0-26.56 1.343-38.344 3.25-9.656-8.75-22.062-16.876-36.53-23.345-39.876-17.72-79.376-15.938-88.25 3.97-7.75 17.342 10.283 42.685 41.407 60.654zm401.126 413.22c-8.25-1.75-16.125-2.75-23.75-3.5 0-2.125.375-4.125.375-6.312 0-33.594-4.75-65.654-12.437-96.125 16.438 1.406 37.375-2.375 58.562-11.78 39.875-17.78 65-48.374 56.125-68.218-8.875-19.97-48.375-21.75-88.25-3.97-18.625 8.313-33.812 19.47-44 30.907-7.75-18.25-16.5-35.78-26.812-51.72-30.188 25.157-87.312 62.72-167.062 71.063v321.78s-.25 32-32.03 32c-31.75 0-32-32-32-32V430.22c-79.812-8.345-136.97-45.97-167.094-71.063-9.875 15.312-18.375 32-25.938 49.344-10.28-10.624-24.625-20.843-41.97-28.593-39.874-17.72-79.374-15.938-88.25 3.97-8.905 19.905 16.25 50.437 56.126 68.218 19.844 8.846 39.53 12.812 55.47 12.096-7.657 30.405-12.47 62.345-12.47 95.813 0 2.188.375 4.25.438 6.5-6.72.75-13.688 1.75-20.78 3.25-51.97 10.75-91.782 37.625-88.845 59.812 2.938 22.312 47.5 31.5 99.594 20.688 6.78-1.375 13.438-3.125 19.78-5.062 9.157 40.81 23.813 78.685 44.095 111.31-12.03 6.062-24.53 15-36.03 26.625C95.714 815 82.778 853.75 98.714 869.688c15.938 15.937 54.656 3 86.53-28.812 9.345-9.375 16.845-19.25 22.657-29C251.434 854.5 305.965 880 365.465 880c60.343 0 115.78-26.25 159.53-69.938 5.876 10.312 13.75 20.812 23.626 30.688 31.813 31.875 70.626 44.812 86.563 28.875s3-54.625-28.875-86.5c-12.312-12.375-25.688-21.75-38.438-27.938 20.125-32.5 34.625-70.375 43.688-111.062 7.188 2.25 14.688 4.375 22.562 6.062 52.06 10.812 96.625 1.562 99.625-20.688 2.813-22.125-37-49-89-59.75z"/>-->
    <!--</symbol>-->
<!--</svg>-->

<svg
xmlns="http://www.w3.org/2000/svg"
xmlns:xlink="http://www.w3.org/1999/xlink"
width="1.208in" height="1.028in">
<symbol id="camera">
    <path fill-rule="evenodd"
          d="M85.198,72.207 C83.996,73.405 82.546,74.006 80.847,74.006 L7.018,74.006 C5.319,74.006 3.869,73.405 2.667,72.207 C1.465,71.008 0.865,69.561 0.865,67.867 L0.865,6.487 C0.865,4.792 1.466,3.346 2.667,2.147 C3.869,0.949 5.319,0.348 7.018,0.348 L80.848,0.348 C82.546,0.348 83.997,0.948 85.198,2.147 C86.399,3.346 87.000,4.793 87.000,6.487 L87.000,67.867 C87.000,69.561 86.399,71.008 85.198,72.207 ZM31.627,3.418 L13.170,3.418 L13.170,9.556 L31.627,9.556 L31.627,3.418 ZM80.848,13.105 L80.848,6.487 L41.049,6.487 L37.973,12.625 L7.018,12.625 L7.018,18.763 L80.848,18.763 L80.848,13.105 ZM25.475,40.342 C25.475,45.425 27.277,49.765 30.882,53.361 C34.488,56.958 38.837,58.756 43.932,58.756 C49.028,58.756 53.378,56.958 56.982,53.361 C60.587,49.765 62.390,45.425 62.390,40.342 C62.390,35.259 60.587,30.919 56.982,27.322 C53.378,23.726 49.028,21.928 43.932,21.928 C38.837,21.928 34.488,23.726 30.882,27.322 C27.278,30.919 25.475,35.259 25.475,40.342 ZM80.848,61.729 L7.018,61.729 L7.018,67.867 L80.848,67.867 L80.848,61.729 ZM43.932,28.066 C47.329,28.066 50.229,29.265 52.632,31.663 C55.036,34.060 56.238,36.953 56.238,40.342 C56.238,43.731 55.036,46.624 52.632,49.022 C50.229,51.419 47.329,52.618 43.932,52.618 C40.536,52.618 37.636,51.419 35.232,49.022 C32.829,46.624 31.627,43.731 31.627,40.342 C31.627,36.953 32.829,34.060 35.232,31.663 C37.636,29.265 40.535,28.066 43.932,28.066 ZM36.674,41.349 C36.962,41.637 37.331,41.780 37.779,41.780 C38.229,41.780 38.597,41.637 38.885,41.349 C39.174,41.061 39.318,40.694 39.318,40.246 C39.318,38.967 39.766,37.881 40.663,36.985 C41.561,36.090 42.650,35.643 43.932,35.643 C44.380,35.643 44.749,35.499 45.037,35.211 C45.327,34.923 45.471,34.555 45.471,34.108 C45.471,33.660 45.327,33.292 45.038,33.005 C44.749,32.717 44.381,32.574 43.932,32.574 C41.817,32.574 40.007,33.325 38.501,34.827 C36.994,36.330 36.241,38.136 36.241,40.246 C36.241,40.694 36.385,41.061 36.674,41.349 Z"/>
</symbol>
<symbol id="arrow">
    <path fill-rule="evenodd"
          d="M84.733,71.397 C83.227,72.900 81.416,73.650 79.302,73.650 L8.548,73.650 C6.433,73.650 4.622,72.900 3.116,71.397 C1.610,69.895 0.857,68.088 0.857,65.979 L0.857,42.962 L33.158,42.962 L33.158,50.633 C33.158,51.465 33.462,52.184 34.071,52.792 C34.680,53.399 35.401,53.703 36.234,53.703 L51.616,53.703 C52.449,53.703 53.170,53.399 53.779,52.792 C54.387,52.184 54.692,51.465 54.692,50.633 L54.692,42.962 L86.992,42.962 L86.992,65.979 C86.992,68.088 86.240,69.895 84.733,71.397 ZM37.772,49.099 L37.772,42.962 L50.078,42.962 L50.078,49.099 L37.772,49.099 ZM0.857,19.943 C0.857,17.833 1.610,16.027 3.116,14.525 C4.622,13.022 6.433,12.271 8.548,12.271 L25.467,12.271 L25.467,4.598 C25.467,3.319 25.916,2.232 26.813,1.338 C27.711,0.443 28.800,-0.005 30.082,-0.005 L57.768,-0.005 C59.050,-0.005 60.140,0.443 61.036,1.338 C61.934,2.233 62.382,3.319 62.382,4.598 L62.382,12.271 L79.302,12.271 C81.416,12.271 83.227,13.022 84.733,14.525 C86.240,16.027 86.992,17.833 86.992,19.943 L86.992,38.358 L0.857,38.358 L0.857,19.943 ZM31.620,12.271 L56.230,12.271 L56.230,6.133 L31.620,6.133 L31.620,12.271 Z"/>
</symbol>
<symbol id="keys">
    <path fill-rule="evenodd"
          d="M82.723,26.639 C80.449,21.332 77.388,16.761 73.543,12.924 C69.698,9.088 65.115,6.035 59.795,3.765 C54.475,1.496 48.900,0.360 43.068,0.360 C37.235,0.360 31.659,1.496 26.340,3.765 C21.021,6.036 16.439,9.088 12.594,12.924 C8.747,16.761 5.688,21.332 3.412,26.639 C1.138,31.946 -0.000,37.509 -0.000,43.327 C-0.000,51.703 2.259,59.424 6.777,66.490 C7.386,67.416 8.251,67.879 9.373,67.879 L76.763,67.879 C77.884,67.879 78.749,67.416 79.357,66.490 C83.876,59.392 86.135,51.672 86.135,43.327 C86.135,37.509 84.998,31.946 82.723,26.639 ZM38.717,8.298 C39.920,7.098 41.369,6.499 43.068,6.499 C44.766,6.499 46.216,7.098 47.417,8.298 C48.619,9.496 49.221,10.943 49.221,12.637 C49.221,14.331 48.619,15.778 47.417,16.976 C46.216,18.176 44.766,18.776 43.068,18.776 C41.369,18.776 39.919,18.176 38.717,16.976 C37.516,15.778 36.915,14.331 36.915,12.637 C36.915,10.943 37.515,9.496 38.717,8.298 ZM16.655,47.667 C15.453,48.866 14.003,49.466 12.305,49.466 C10.607,49.466 9.157,48.866 7.955,47.667 C6.753,46.469 6.153,45.021 6.153,43.327 C6.153,41.633 6.753,40.186 7.955,38.987 C9.157,37.788 10.607,37.189 12.305,37.189 C14.003,37.189 15.454,37.788 16.655,38.987 C17.857,40.186 18.458,41.633 18.458,43.327 C18.458,45.021 17.857,46.468 16.655,47.667 ZM25.884,26.184 C24.682,27.383 23.232,27.982 21.534,27.982 C19.835,27.982 18.385,27.382 17.183,26.184 C15.982,24.985 15.381,23.539 15.381,21.844 C15.381,20.150 15.982,18.704 17.183,17.504 C18.386,16.305 19.835,15.706 21.534,15.706 C23.232,15.706 24.682,16.305 25.884,17.504 C27.085,18.704 27.687,20.150 27.687,21.844 C27.687,23.538 27.085,24.985 25.884,26.184 ZM53.113,26.592 L48.258,44.909 C49.861,45.996 51.015,47.450 51.720,49.274 C52.424,51.096 52.521,52.966 52.008,54.884 C51.367,57.345 49.941,59.216 47.730,60.495 C45.518,61.773 43.180,62.094 40.712,61.453 C38.245,60.814 36.370,59.392 35.088,57.186 C33.807,54.979 33.486,52.647 34.127,50.184 C34.640,48.267 35.649,46.692 37.156,45.462 C38.661,44.230 40.376,43.535 42.298,43.375 L47.153,25.057 C47.377,24.226 47.858,23.594 48.595,23.162 C49.332,22.732 50.100,22.627 50.902,22.851 C51.704,23.075 52.320,23.546 52.752,24.265 C53.186,24.985 53.306,25.760 53.113,26.592 ZM60.252,26.184 C59.050,24.985 58.448,23.539 58.448,21.844 C58.448,20.150 59.050,18.704 60.252,17.504 C61.453,16.305 62.903,15.706 64.601,15.706 C66.300,15.706 67.749,16.305 68.951,17.504 C70.153,18.704 70.755,20.150 70.755,21.844 C70.755,23.538 70.153,24.985 68.951,26.184 C67.749,27.383 66.300,27.982 64.601,27.982 C62.903,27.982 61.453,27.383 60.252,26.184 ZM78.180,47.667 C76.978,48.866 75.528,49.466 73.830,49.466 C72.132,49.466 70.682,48.866 69.480,47.667 C68.278,46.469 67.677,45.021 67.677,43.327 C67.677,41.633 68.278,40.186 69.480,38.987 C70.682,37.788 72.132,37.189 73.830,37.189 C75.528,37.189 76.978,37.788 78.180,38.987 C79.381,40.186 79.982,41.633 79.982,43.327 C79.982,45.021 79.382,46.468 78.180,47.667 Z"/>
</symbol>
</svg>

